<svg xmlns="http://www.w3.org/2000/svg" xmlns:xlink="http://www.w3.org/1999/xlink" width="40" zoomAndPan="magnify" viewBox="0 0 30 30.000001" height="40" preserveAspectRatio="xMidYMid meet" version="1.0"><defs><clipPath id="de2a6138b7"><path d="M 0.484375 0.597656 L 29.515625 0.597656 L 29.515625 28.179688 L 0.484375 28.179688 Z M 0.484375 0.597656 " clip-rule="nonzero"/></clipPath></defs><g clip-path="url(#de2a6138b7)"><path fill="#0a2540" d="M 9.566406 12.441406 C 9.730469 12.125 10.117188 12 10.433594 12.164062 C 10.75 12.324219 10.875 12.710938 10.710938 13.027344 C 9.476562 15.433594 9.171875 18.070312 9.671875 20.523438 C 10.179688 23.027344 11.515625 25.347656 13.550781 27.042969 C 13.820312 27.269531 13.859375 27.675781 13.628906 27.949219 C 13.402344 28.222656 12.996094 28.257812 12.722656 28.03125 C 10.464844 26.148438 8.976562 23.566406 8.410156 20.78125 C 7.859375 18.046875 8.195312 15.113281 9.566406 12.441406 Z M 3.585938 23.582031 C 3.480469 23.242188 3.671875 22.878906 4.011719 22.777344 C 4.351562 22.671875 4.710938 22.863281 4.816406 23.203125 C 4.859375 23.339844 4.890625 23.4375 4.90625 23.484375 C 4.914062 23.515625 4.945312 23.609375 5 23.761719 C 5.117188 24.101562 4.9375 24.464844 4.601562 24.582031 C 4.265625 24.699219 3.898438 24.519531 3.78125 24.183594 C 3.769531 24.148438 3.734375 24.046875 3.683594 23.882812 C 3.636719 23.738281 3.601562 23.636719 3.585938 23.582031 Z M 2.925781 15.992188 C 2.96875 15.640625 3.289062 15.390625 3.640625 15.433594 C 3.992188 15.476562 4.242188 15.800781 4.199219 16.152344 C 4.109375 16.875 4.066406 17.601562 4.070312 18.328125 C 4.074219 19.054688 4.125 19.785156 4.222656 20.507812 C 4.269531 20.859375 4.023438 21.183594 3.671875 21.230469 C 3.320312 21.28125 2.996094 21.035156 2.949219 20.683594 C 2.84375 19.910156 2.789062 19.125 2.785156 18.335938 C 2.78125 17.558594 2.828125 16.773438 2.925781 15.992188 Z M 4.304688 10.996094 C 4.449219 10.671875 4.828125 10.523438 5.15625 10.667969 C 5.480469 10.8125 5.628906 11.191406 5.484375 11.515625 C 5.363281 11.792969 5.246094 12.082031 5.132812 12.378906 C 5.023438 12.679688 4.921875 12.96875 4.832031 13.253906 C 4.726562 13.59375 4.367188 13.785156 4.027344 13.679688 C 3.6875 13.574219 3.496094 13.214844 3.601562 12.875 C 3.703125 12.546875 3.8125 12.230469 3.929688 11.925781 C 4.042969 11.621094 4.167969 11.3125 4.304688 10.996094 Z M 8.609375 6.914062 C 8.953125 6.828125 9.304688 7.03125 9.394531 7.375 C 9.484375 7.722656 9.277344 8.074219 8.933594 8.164062 C 8.496094 8.277344 8.078125 8.453125 7.691406 8.6875 C 7.3125 8.914062 6.960938 9.199219 6.652344 9.535156 C 6.410156 9.796875 6.007812 9.816406 5.746094 9.574219 C 5.484375 9.335938 5.464844 8.929688 5.707031 8.667969 C 6.097656 8.238281 6.546875 7.878906 7.03125 7.585938 C 7.527344 7.285156 8.058594 7.0625 8.609375 6.914062 Z M 10.503906 1.347656 C 10.859375 1.359375 11.140625 1.65625 11.128906 2.011719 C 11.117188 2.367188 10.820312 2.648438 10.46875 2.636719 C 10.394531 2.632812 10.328125 2.632812 10.261719 2.632812 C 10.199219 2.632812 10.132812 2.632812 10.058594 2.632812 C 9.703125 2.636719 9.414062 2.351562 9.410156 1.996094 C 9.40625 1.640625 9.691406 1.347656 10.046875 1.34375 C 10.117188 1.34375 10.191406 1.34375 10.273438 1.34375 C 10.355469 1.34375 10.429688 1.347656 10.503906 1.347656 Z M 18.539062 5.039062 C 18.78125 5.300781 18.761719 5.710938 18.5 5.949219 C 18.238281 6.1875 17.832031 6.171875 17.589844 5.910156 C 17.1875 5.46875 16.75 5.066406 16.273438 4.703125 C 15.808594 4.347656 15.300781 4.027344 14.757812 3.75 C 14.421875 3.574219 14.078125 3.421875 13.726562 3.289062 C 13.371094 3.152344 13.011719 3.039062 12.660156 2.949219 C 12.316406 2.859375 12.109375 2.507812 12.199219 2.164062 C 12.289062 1.820312 12.636719 1.617188 12.980469 1.707031 C 13.390625 1.8125 13.792969 1.9375 14.183594 2.085938 C 14.574219 2.234375 14.960938 2.410156 15.34375 2.605469 C 15.953125 2.917969 16.523438 3.277344 17.050781 3.683594 C 17.597656 4.097656 18.09375 4.554688 18.539062 5.039062 Z M 25.519531 10.992188 C 25.476562 10.636719 25.730469 10.320312 26.082031 10.277344 C 26.433594 10.234375 26.753906 10.488281 26.796875 10.839844 C 26.933594 12.03125 26.941406 13.242188 26.816406 14.453125 C 26.695312 15.636719 26.449219 16.820312 26.0625 17.976562 C 25.953125 18.316406 25.589844 18.5 25.25 18.386719 C 24.914062 18.277344 24.730469 17.914062 24.839844 17.574219 C 25.195312 16.5 25.425781 15.410156 25.539062 14.320312 C 25.652344 13.207031 25.644531 12.089844 25.519531 10.992188 Z M 23.332031 4.640625 C 23.144531 4.335938 23.242188 3.941406 23.546875 3.753906 C 23.851562 3.570312 24.246094 3.667969 24.429688 3.96875 C 24.804688 4.582031 25.144531 5.226562 25.445312 5.898438 C 25.742188 6.566406 25.996094 7.25 26.203125 7.941406 C 26.304688 8.28125 26.109375 8.640625 25.769531 8.742188 C 25.429688 8.84375 25.070312 8.648438 24.96875 8.308594 C 24.773438 7.660156 24.542969 7.027344 24.269531 6.417969 C 24 5.816406 23.6875 5.222656 23.332031 4.640625 Z M 17.867188 26.484375 C 18.203125 26.605469 18.371094 26.976562 18.25 27.308594 C 18.125 27.640625 17.753906 27.8125 17.421875 27.6875 C 17.226562 27.617188 17.035156 27.539062 16.855469 27.460938 C 16.675781 27.382812 16.488281 27.292969 16.300781 27.195312 C 15.015625 26.535156 13.933594 25.636719 13.082031 24.582031 C 12.195312 23.484375 11.554688 22.222656 11.191406 20.878906 C 11.15625 20.75 11.121094 20.59375 11.082031 20.417969 C 11.046875 20.265625 11.015625 20.109375 10.988281 19.953125 C 10.929688 19.601562 11.164062 19.269531 11.511719 19.210938 C 11.863281 19.148438 12.195312 19.382812 12.253906 19.730469 C 12.277344 19.867188 12.304688 20.003906 12.335938 20.140625 C 12.359375 20.253906 12.394531 20.386719 12.4375 20.546875 C 12.753906 21.714844 13.3125 22.820312 14.082031 23.773438 C 14.828125 24.695312 15.769531 25.476562 16.886719 26.050781 C 17.042969 26.132812 17.207031 26.207031 17.375 26.28125 C 17.542969 26.359375 17.710938 26.425781 17.867188 26.484375 Z M 20.683594 27.019531 C 21.039062 27.027344 21.320312 27.320312 21.3125 27.675781 C 21.304688 28.03125 21.011719 28.3125 20.65625 28.304688 C 20.539062 28.304688 20.421875 28.296875 20.3125 28.292969 C 20.191406 28.285156 20.078125 28.277344 19.96875 28.265625 C 19.613281 28.234375 19.351562 27.921875 19.382812 27.566406 C 19.417969 27.214844 19.730469 26.953125 20.082031 26.984375 C 20.1875 26.996094 20.289062 27.003906 20.382812 27.007812 C 20.484375 27.011719 20.585938 27.015625 20.683594 27.019531 Z M 8.320312 11.800781 C 8.160156 12.117188 7.773438 12.242188 7.457031 12.078125 C 7.140625 11.917969 7.015625 11.53125 7.175781 11.214844 C 7.597656 10.398438 8.308594 9.828125 9.121094 9.566406 C 9.933594 9.304688 10.84375 9.355469 11.660156 9.773438 C 12.476562 10.195312 13.046875 10.90625 13.308594 11.71875 C 13.570312 12.527344 13.519531 13.4375 13.101562 14.257812 C 12.847656 14.75 12.644531 15.261719 12.488281 15.785156 C 12.332031 16.320312 12.226562 16.859375 12.171875 17.390625 C 12.136719 17.742188 11.824219 18 11.46875 17.964844 C 11.117188 17.929688 10.859375 17.617188 10.894531 17.261719 C 10.957031 16.640625 11.074219 16.019531 11.253906 15.417969 C 11.425781 14.828125 11.660156 14.246094 11.957031 13.667969 C 12.214844 13.167969 12.246094 12.605469 12.085938 12.109375 C 11.925781 11.613281 11.574219 11.175781 11.074219 10.917969 C 10.570312 10.660156 10.011719 10.628906 9.511719 10.789062 C 9.015625 10.949219 8.578125 11.300781 8.320312 11.800781 Z M 6.753906 18.257812 C 6.757812 18.609375 6.46875 18.898438 6.113281 18.898438 C 5.761719 18.902344 5.472656 18.613281 5.46875 18.257812 C 5.46875 17.453125 5.53125 16.644531 5.660156 15.84375 C 5.785156 15.058594 5.972656 14.269531 6.226562 13.488281 C 6.339844 13.152344 6.699219 12.96875 7.039062 13.078125 C 7.375 13.1875 7.558594 13.550781 7.449219 13.886719 C 7.21875 14.59375 7.046875 15.316406 6.929688 16.042969 C 6.8125 16.785156 6.753906 17.523438 6.753906 18.257812 Z M 8.140625 24.355469 C 8.296875 24.679688 8.160156 25.0625 7.839844 25.214844 C 7.515625 25.367188 7.132812 25.234375 6.980469 24.910156 C 6.691406 24.308594 6.445312 23.683594 6.234375 23.039062 C 6.023438 22.402344 5.859375 21.75 5.734375 21.085938 C 5.667969 20.734375 5.898438 20.402344 6.246094 20.335938 C 6.597656 20.269531 6.933594 20.5 6.996094 20.851562 C 7.109375 21.453125 7.261719 22.054688 7.457031 22.640625 C 7.644531 23.21875 7.875 23.792969 8.140625 24.355469 Z M 10.082031 27.371094 C 10.3125 27.644531 10.277344 28.050781 10.007812 28.277344 C 9.734375 28.507812 9.328125 28.472656 9.101562 28.199219 C 8.972656 28.046875 8.847656 27.894531 8.730469 27.746094 C 8.621094 27.605469 8.503906 27.449219 8.378906 27.277344 C 8.175781 26.988281 8.242188 26.585938 8.53125 26.378906 C 8.816406 26.171875 9.21875 26.238281 9.425781 26.527344 C 9.519531 26.660156 9.628906 26.800781 9.746094 26.957031 C 9.859375 27.101562 9.972656 27.238281 10.082031 27.371094 Z M 1.757812 14.445312 C 1.6875 14.792969 1.351562 15.019531 1 14.949219 C 0.652344 14.878906 0.425781 14.539062 0.496094 14.191406 C 0.582031 13.753906 0.6875 13.3125 0.8125 12.859375 C 0.929688 12.421875 1.0625 11.984375 1.210938 11.546875 C 1.328125 11.210938 1.691406 11.03125 2.027344 11.144531 C 2.363281 11.261719 2.542969 11.625 2.425781 11.960938 C 2.289062 12.363281 2.164062 12.777344 2.050781 13.191406 C 1.941406 13.597656 1.84375 14.015625 1.757812 14.445312 Z M 16.3125 19.191406 C 16.242188 18.84375 16.46875 18.507812 16.816406 18.4375 C 17.164062 18.367188 17.503906 18.589844 17.574219 18.9375 C 17.675781 19.433594 17.886719 19.902344 18.195312 20.3125 C 18.488281 20.699219 18.878906 21.03125 19.34375 21.273438 C 20.175781 21.699219 21.101562 21.75 21.929688 21.484375 C 22.753906 21.21875 23.476562 20.640625 23.90625 19.808594 C 24.066406 19.492188 24.453125 19.367188 24.769531 19.53125 C 25.085938 19.691406 25.210938 20.078125 25.050781 20.394531 C 24.460938 21.542969 23.460938 22.34375 22.320312 22.710938 C 21.183594 23.074219 19.902344 23.007812 18.757812 22.417969 C 18.117188 22.085938 17.582031 21.628906 17.171875 21.085938 C 16.746094 20.523438 16.453125 19.875 16.3125 19.191406 Z M 14.125 6.480469 C 13.824219 6.289062 13.738281 5.894531 13.925781 5.59375 C 14.117188 5.292969 14.515625 5.203125 14.816406 5.394531 C 16.703125 6.59375 17.988281 8.425781 18.542969 10.464844 C 19.089844 12.480469 18.910156 14.703125 17.878906 16.710938 C 17.71875 17.027344 17.332031 17.152344 17.015625 16.992188 C 16.699219 16.828125 16.574219 16.441406 16.734375 16.125 C 17.613281 14.414062 17.765625 12.519531 17.296875 10.796875 C 16.828125 9.0625 15.730469 7.5 14.125 6.480469 Z M 5.949219 6.613281 C 5.65625 6.8125 5.257812 6.738281 5.054688 6.445312 C 4.855469 6.152344 4.929688 5.75 5.226562 5.550781 C 6.242188 4.855469 7.398438 4.386719 8.605469 4.167969 C 9.796875 3.953125 11.039062 3.988281 12.25 4.292969 C 12.59375 4.378906 12.804688 4.726562 12.71875 5.070312 C 12.632812 5.414062 12.285156 5.625 11.9375 5.539062 C 10.90625 5.277344 9.851562 5.25 8.835938 5.433594 C 7.808594 5.617188 6.824219 6.019531 5.949219 6.613281 Z M 3.542969 9.34375 C 3.378906 9.660156 2.992188 9.785156 2.675781 9.625 C 2.359375 9.460938 2.238281 9.074219 2.398438 8.757812 C 2.488281 8.585938 2.582031 8.414062 2.683594 8.242188 C 2.789062 8.070312 2.898438 7.902344 3.007812 7.75 C 3.210938 7.457031 3.609375 7.386719 3.902344 7.589844 C 4.191406 7.792969 4.261719 8.195312 4.058594 8.484375 C 3.960938 8.625 3.871094 8.765625 3.789062 8.90625 C 3.703125 9.042969 3.621094 9.191406 3.542969 9.34375 Z M 17.828125 0.945312 C 18.125 1.136719 18.210938 1.535156 18.015625 1.835938 C 17.820312 2.132812 17.425781 2.214844 17.125 2.023438 C 17.078125 1.992188 17.015625 1.953125 16.945312 1.90625 C 16.902344 1.878906 16.839844 1.84375 16.761719 1.792969 C 16.457031 1.609375 16.359375 1.214844 16.542969 0.910156 C 16.726562 0.605469 17.121094 0.507812 17.425781 0.691406 C 17.476562 0.722656 17.542969 0.761719 17.628906 0.816406 C 17.683594 0.851562 17.75 0.894531 17.828125 0.945312 Z M 24.199219 13.488281 C 24.179688 13.84375 23.875 14.113281 23.523438 14.09375 C 23.167969 14.074219 22.894531 13.773438 22.914062 13.417969 C 23.011719 11.5625 22.699219 9.714844 22.019531 8.003906 C 21.347656 6.3125 20.3125 4.753906 18.957031 3.46875 C 18.699219 3.222656 18.6875 2.816406 18.933594 2.558594 C 19.175781 2.300781 19.585938 2.289062 19.84375 2.535156 C 21.335938 3.953125 22.476562 5.667969 23.21875 7.53125 C 23.964844 9.40625 24.304688 11.441406 24.199219 13.488281 Z M 20.046875 10.757812 C 19.980469 10.410156 20.207031 10.074219 20.554688 10.003906 C 20.902344 9.933594 21.238281 10.160156 21.308594 10.507812 C 21.554688 11.75 21.601562 13.035156 21.421875 14.3125 C 21.25 15.546875 20.871094 16.769531 20.269531 17.941406 C 20.179688 18.113281 20.171875 18.304688 20.226562 18.476562 C 20.28125 18.644531 20.398438 18.792969 20.570312 18.882812 C 20.746094 18.972656 20.9375 18.980469 21.105469 18.929688 C 21.277344 18.871094 21.425781 18.753906 21.515625 18.582031 C 21.738281 18.148438 21.933594 17.707031 22.105469 17.257812 C 22.277344 16.804688 22.421875 16.347656 22.539062 15.882812 C 22.625 15.539062 22.976562 15.332031 23.320312 15.417969 C 23.664062 15.507812 23.871094 15.855469 23.785156 16.199219 C 23.65625 16.707031 23.496094 17.214844 23.304688 17.714844 C 23.121094 18.203125 22.90625 18.6875 22.660156 19.167969 C 22.410156 19.65625 21.984375 19.996094 21.5 20.152344 C 21.015625 20.304688 20.472656 20.277344 19.984375 20.027344 C 19.496094 19.777344 19.15625 19.351562 19 18.867188 C 18.847656 18.382812 18.875 17.839844 19.125 17.351562 C 19.660156 16.316406 19.996094 15.226562 20.148438 14.132812 C 20.308594 13 20.269531 11.859375 20.046875 10.757812 Z M 19.046875 7.96875 C 18.878906 7.652344 19 7.261719 19.3125 7.097656 C 19.625 6.929688 20.015625 7.046875 20.183594 7.363281 C 20.203125 7.394531 20.242188 7.476562 20.308594 7.609375 C 20.359375 7.710938 20.402344 7.792969 20.433594 7.855469 C 20.582031 8.179688 20.445312 8.5625 20.125 8.714844 C 19.804688 8.867188 19.421875 8.726562 19.269531 8.40625 C 19.222656 8.3125 19.1875 8.238281 19.160156 8.1875 C 19.148438 8.160156 19.113281 8.089844 19.046875 7.96875 Z M 29.425781 15.292969 C 29.378906 15.648438 29.054688 15.894531 28.703125 15.847656 C 28.351562 15.800781 28.101562 15.480469 28.148438 15.125 C 28.171875 14.957031 28.1875 14.835938 28.195312 14.757812 C 28.203125 14.675781 28.214844 14.550781 28.230469 14.386719 C 28.261719 14.03125 28.574219 13.773438 28.929688 13.804688 C 29.285156 13.835938 29.542969 14.148438 29.511719 14.5 C 29.503906 14.59375 29.492188 14.726562 29.472656 14.898438 C 29.453125 15.074219 29.4375 15.207031 29.425781 15.292969 Z M 27.582031 21.339844 C 27.421875 21.65625 27.039062 21.789062 26.71875 21.628906 C 26.402344 21.472656 26.273438 21.089844 26.429688 20.769531 C 26.675781 20.273438 26.898438 19.765625 27.09375 19.253906 C 27.292969 18.742188 27.464844 18.222656 27.617188 17.691406 C 27.710938 17.351562 28.066406 17.152344 28.410156 17.25 C 28.75 17.34375 28.949219 17.699219 28.855469 18.042969 C 28.695312 18.597656 28.507812 19.160156 28.292969 19.71875 C 28.082031 20.261719 27.84375 20.804688 27.582031 21.339844 Z M 23.472656 25.152344 C 23.140625 25.277344 22.769531 25.109375 22.644531 24.773438 C 22.519531 24.441406 22.691406 24.070312 23.023438 23.945312 C 23.394531 23.804688 23.75 23.632812 24.082031 23.429688 C 24.414062 23.226562 24.730469 22.988281 25.019531 22.71875 C 25.28125 22.476562 25.6875 22.492188 25.929688 22.753906 C 26.167969 23.015625 26.152344 23.421875 25.894531 23.664062 C 25.542969 23.988281 25.160156 24.277344 24.757812 24.523438 C 24.34375 24.777344 23.914062 24.988281 23.472656 25.152344 Z M 18.390625 25.183594 C 18.058594 25.0625 17.886719 24.691406 18.003906 24.359375 C 18.125 24.027344 18.492188 23.851562 18.828125 23.972656 C 19.125 24.082031 19.425781 24.164062 19.726562 24.222656 C 20.027344 24.28125 20.339844 24.320312 20.648438 24.332031 C 21.003906 24.34375 21.277344 24.640625 21.265625 24.996094 C 21.253906 25.351562 20.953125 25.628906 20.597656 25.617188 C 20.226562 25.601562 19.851562 25.558594 19.476562 25.484375 C 19.113281 25.410156 18.75 25.3125 18.390625 25.183594 Z M 14.113281 15.390625 C 14.253906 15.066406 14.628906 14.910156 14.957031 15.050781 C 15.285156 15.1875 15.4375 15.566406 15.300781 15.894531 C 14.769531 17.136719 14.691406 18.472656 14.996094 19.710938 C 15.304688 20.960938 16.003906 22.109375 17.035156 22.953125 C 17.3125 23.179688 17.351562 23.585938 17.128906 23.859375 C 16.902344 24.136719 16.5 24.175781 16.222656 23.953125 C 14.96875 22.925781 14.117188 21.53125 13.746094 20.015625 C 13.375 18.519531 13.472656 16.898438 14.113281 15.390625 Z M 11.007812 8.082031 C 10.660156 8.019531 10.429688 7.683594 10.496094 7.335938 C 10.558594 6.984375 10.894531 6.753906 11.246094 6.820312 C 11.527344 6.875 11.808594 6.949219 12.085938 7.042969 C 12.359375 7.136719 12.625 7.25 12.886719 7.382812 C 13.964844 7.9375 14.800781 8.769531 15.359375 9.746094 C 15.9375 10.753906 16.214844 11.914062 16.148438 13.085938 C 16.125 13.4375 15.824219 13.710938 15.46875 13.691406 C 15.113281 13.667969 14.84375 13.367188 14.863281 13.011719 C 14.914062 12.089844 14.695312 11.175781 14.246094 10.382812 C 13.804688 9.617188 13.148438 8.960938 12.300781 8.527344 C 12.09375 8.421875 11.882812 8.332031 11.667969 8.257812 C 11.449219 8.183594 11.226562 8.125 11.007812 8.082031 " fill-opacity="1" fill-rule="nonzero"/></g></svg>