<svg xmlns="http://www.w3.org/2000/svg" xmlns:xlink="http://www.w3.org/1999/xlink" width="136" zoomAndPan="magnify" viewBox="0 0 102 30.000001" height="40" preserveAspectRatio="xMidYMid meet" version="1.0"><defs><g/><clipPath id="25a5979918"><path d="M 3.097656 0.421875 L 32.492188 0.421875 L 32.492188 28.601562 L 3.097656 28.601562 Z M 3.097656 0.421875 " clip-rule="nonzero"/></clipPath></defs><g clip-path="url(#25a5979918)"><path fill="#0a2540" d="M 12.292969 12.414062 C 12.457031 12.09375 12.851562 11.964844 13.167969 12.128906 C 13.488281 12.292969 13.617188 12.6875 13.453125 13.007812 C 12.203125 15.441406 11.894531 18.109375 12.398438 20.597656 C 12.910156 23.132812 14.269531 25.480469 16.324219 27.195312 C 16.601562 27.425781 16.636719 27.839844 16.40625 28.113281 C 16.175781 28.390625 15.765625 28.429688 15.488281 28.199219 C 13.203125 26.289062 11.695312 23.675781 11.125 20.855469 C 10.5625 18.085938 10.902344 15.117188 12.292969 12.414062 Z M 6.238281 23.691406 C 6.132812 23.347656 6.324219 22.980469 6.667969 22.875 C 7.011719 22.769531 7.378906 22.964844 7.484375 23.308594 C 7.527344 23.449219 7.558594 23.542969 7.574219 23.59375 C 7.582031 23.625 7.613281 23.71875 7.667969 23.875 C 7.785156 24.214844 7.605469 24.585938 7.265625 24.707031 C 6.925781 24.824219 6.554688 24.644531 6.4375 24.300781 C 6.421875 24.265625 6.390625 24.164062 6.335938 23.996094 C 6.285156 23.847656 6.253906 23.746094 6.238281 23.691406 Z M 5.570312 16.007812 C 5.613281 15.652344 5.9375 15.398438 6.292969 15.441406 C 6.648438 15.488281 6.902344 15.8125 6.859375 16.167969 C 6.765625 16.902344 6.722656 17.640625 6.726562 18.371094 C 6.730469 19.109375 6.78125 19.847656 6.882812 20.578125 C 6.929688 20.933594 6.683594 21.261719 6.324219 21.3125 C 5.96875 21.363281 5.640625 21.113281 5.59375 20.757812 C 5.484375 19.972656 5.429688 19.179688 5.425781 18.378906 C 5.421875 17.59375 5.46875 16.800781 5.570312 16.007812 Z M 6.96875 10.949219 C 7.113281 10.621094 7.496094 10.472656 7.824219 10.617188 C 8.15625 10.761719 8.304688 11.144531 8.160156 11.476562 C 8.035156 11.757812 7.917969 12.046875 7.804688 12.347656 C 7.691406 12.652344 7.589844 12.949219 7.5 13.234375 C 7.394531 13.578125 7.027344 13.773438 6.683594 13.664062 C 6.339844 13.558594 6.148438 13.195312 6.253906 12.851562 C 6.359375 12.519531 6.46875 12.199219 6.582031 11.890625 C 6.699219 11.582031 6.828125 11.269531 6.96875 10.949219 Z M 11.324219 6.816406 C 11.671875 6.726562 12.027344 6.9375 12.121094 7.285156 C 12.210938 7.632812 12 7.988281 11.652344 8.078125 C 11.210938 8.195312 10.785156 8.375 10.394531 8.609375 C 10.007812 8.84375 9.652344 9.128906 9.34375 9.46875 C 9.097656 9.734375 8.6875 9.753906 8.421875 9.507812 C 8.160156 9.265625 8.140625 8.855469 8.382812 8.589844 C 8.78125 8.15625 9.234375 7.789062 9.726562 7.496094 C 10.226562 7.191406 10.765625 6.964844 11.324219 6.816406 Z M 13.242188 1.179688 C 13.601562 1.191406 13.886719 1.492188 13.875 1.851562 C 13.863281 2.210938 13.5625 2.496094 13.203125 2.484375 C 13.132812 2.484375 13.0625 2.480469 12.996094 2.480469 C 12.933594 2.480469 12.867188 2.480469 12.792969 2.480469 C 12.433594 2.484375 12.136719 2.195312 12.132812 1.835938 C 12.128906 1.476562 12.417969 1.179688 12.777344 1.175781 C 12.851562 1.175781 12.925781 1.175781 13.007812 1.175781 C 13.089844 1.175781 13.167969 1.179688 13.242188 1.179688 Z M 21.378906 4.917969 C 21.621094 5.183594 21.605469 5.597656 21.335938 5.839844 C 21.070312 6.082031 20.660156 6.0625 20.417969 5.796875 C 20.011719 5.351562 19.566406 4.945312 19.085938 4.578125 C 18.613281 4.21875 18.101562 3.894531 17.546875 3.609375 C 17.207031 3.433594 16.859375 3.28125 16.507812 3.144531 C 16.144531 3.007812 15.78125 2.894531 15.425781 2.800781 C 15.078125 2.710938 14.867188 2.355469 14.957031 2.007812 C 15.046875 1.660156 15.402344 1.453125 15.75 1.542969 C 16.164062 1.648438 16.574219 1.777344 16.96875 1.929688 C 17.363281 2.078125 17.753906 2.253906 18.140625 2.453125 C 18.757812 2.769531 19.335938 3.136719 19.871094 3.542969 C 20.425781 3.964844 20.929688 4.425781 21.378906 4.917969 Z M 28.445312 10.945312 C 28.402344 10.585938 28.65625 10.261719 29.015625 10.21875 C 29.371094 10.179688 29.695312 10.433594 29.738281 10.792969 C 29.875 11.996094 29.886719 13.222656 29.761719 14.449219 C 29.636719 15.648438 29.386719 16.84375 28.996094 18.015625 C 28.882812 18.359375 28.515625 18.546875 28.175781 18.433594 C 27.832031 18.320312 27.644531 17.953125 27.757812 17.609375 C 28.117188 16.523438 28.351562 15.417969 28.464844 14.316406 C 28.582031 13.1875 28.570312 12.058594 28.445312 10.945312 Z M 26.230469 4.515625 C 26.042969 4.207031 26.140625 3.804688 26.445312 3.617188 C 26.753906 3.429688 27.15625 3.527344 27.34375 3.835938 C 27.722656 4.453125 28.066406 5.105469 28.367188 5.789062 C 28.671875 6.464844 28.925781 7.15625 29.136719 7.855469 C 29.238281 8.199219 29.042969 8.5625 28.699219 8.664062 C 28.351562 8.769531 27.992188 8.570312 27.886719 8.226562 C 27.691406 7.570312 27.457031 6.929688 27.179688 6.3125 C 26.910156 5.707031 26.589844 5.105469 26.230469 4.515625 Z M 20.699219 26.628906 C 21.035156 26.753906 21.207031 27.128906 21.082031 27.464844 C 20.957031 27.804688 20.582031 27.976562 20.246094 27.851562 C 20.046875 27.777344 19.855469 27.699219 19.671875 27.617188 C 19.488281 27.539062 19.304688 27.449219 19.113281 27.351562 C 17.8125 26.683594 16.714844 25.773438 15.851562 24.703125 C 14.953125 23.59375 14.308594 22.3125 13.9375 20.957031 C 13.902344 20.824219 13.867188 20.667969 13.824219 20.488281 C 13.792969 20.335938 13.761719 20.179688 13.734375 20.015625 C 13.671875 19.664062 13.910156 19.324219 14.261719 19.265625 C 14.617188 19.203125 14.953125 19.441406 15.015625 19.792969 C 15.039062 19.929688 15.066406 20.066406 15.097656 20.207031 C 15.121094 20.320312 15.15625 20.457031 15.199219 20.617188 C 15.519531 21.804688 16.085938 22.921875 16.867188 23.886719 C 17.621094 24.820312 18.574219 25.609375 19.707031 26.191406 C 19.863281 26.273438 20.027344 26.351562 20.199219 26.425781 C 20.371094 26.503906 20.539062 26.570312 20.699219 26.628906 Z M 23.546875 27.171875 C 23.90625 27.179688 24.191406 27.476562 24.183594 27.835938 C 24.175781 28.195312 23.878906 28.480469 23.519531 28.476562 C 23.402344 28.472656 23.285156 28.46875 23.171875 28.460938 C 23.050781 28.453125 22.933594 28.445312 22.824219 28.433594 C 22.464844 28.402344 22.203125 28.085938 22.234375 27.726562 C 22.265625 27.371094 22.582031 27.105469 22.941406 27.136719 C 23.046875 27.148438 23.152344 27.15625 23.246094 27.160156 C 23.347656 27.167969 23.449219 27.171875 23.546875 27.171875 Z M 11.03125 11.761719 C 10.867188 12.082031 10.476562 12.210938 10.15625 12.046875 C 9.835938 11.882812 9.710938 11.488281 9.875 11.167969 C 10.300781 10.34375 11.019531 9.765625 11.84375 9.5 C 12.664062 9.238281 13.585938 9.285156 14.414062 9.710938 C 15.242188 10.136719 15.816406 10.859375 16.082031 11.679688 C 16.34375 12.5 16.296875 13.421875 15.871094 14.25 C 15.613281 14.75 15.410156 15.265625 15.253906 15.796875 C 15.089844 16.339844 14.984375 16.882812 14.933594 17.421875 C 14.898438 17.78125 14.578125 18.039062 14.222656 18.003906 C 13.863281 17.96875 13.601562 17.652344 13.636719 17.292969 C 13.699219 16.664062 13.820312 16.035156 14 15.425781 C 14.175781 14.832031 14.414062 14.238281 14.710938 13.65625 C 14.972656 13.148438 15.003906 12.582031 14.84375 12.074219 C 14.679688 11.574219 14.328125 11.128906 13.820312 10.871094 C 13.308594 10.609375 12.742188 10.578125 12.238281 10.738281 C 11.734375 10.902344 11.292969 11.253906 11.03125 11.761719 Z M 9.445312 18.300781 C 9.449219 18.660156 9.15625 18.949219 8.796875 18.953125 C 8.4375 18.953125 8.148438 18.664062 8.144531 18.300781 C 8.144531 17.484375 8.207031 16.667969 8.335938 15.859375 C 8.464844 15.0625 8.65625 14.265625 8.914062 13.472656 C 9.023438 13.132812 9.390625 12.945312 9.734375 13.054688 C 10.074219 13.167969 10.261719 13.535156 10.148438 13.875 C 9.917969 14.59375 9.742188 15.320312 9.625 16.058594 C 9.503906 16.808594 9.445312 17.558594 9.445312 18.300781 Z M 10.851562 24.476562 C 11.003906 24.800781 10.867188 25.191406 10.542969 25.347656 C 10.21875 25.5 9.828125 25.363281 9.671875 25.039062 C 9.382812 24.429688 9.128906 23.796875 8.917969 23.140625 C 8.707031 22.496094 8.539062 21.835938 8.414062 21.164062 C 8.347656 20.8125 8.578125 20.472656 8.933594 20.40625 C 9.285156 20.339844 9.625 20.574219 9.691406 20.925781 C 9.804688 21.539062 9.960938 22.144531 10.15625 22.738281 C 10.347656 23.324219 10.578125 23.90625 10.851562 24.476562 Z M 12.816406 27.53125 C 13.046875 27.804688 13.011719 28.214844 12.738281 28.445312 C 12.464844 28.679688 12.054688 28.644531 11.820312 28.367188 C 11.691406 28.214844 11.566406 28.058594 11.445312 27.90625 C 11.335938 27.765625 11.21875 27.605469 11.09375 27.433594 C 10.882812 27.140625 10.949219 26.734375 11.242188 26.523438 C 11.535156 26.316406 11.941406 26.382812 12.148438 26.675781 C 12.246094 26.808594 12.355469 26.953125 12.476562 27.109375 C 12.589844 27.253906 12.703125 27.394531 12.816406 27.53125 Z M 4.386719 14.441406 C 4.316406 14.792969 3.972656 15.023438 3.621094 14.949219 C 3.269531 14.878906 3.039062 14.539062 3.109375 14.183594 C 3.199219 13.742188 3.304688 13.292969 3.425781 12.835938 C 3.546875 12.394531 3.683594 11.949219 3.835938 11.507812 C 3.949219 11.167969 4.320312 10.984375 4.660156 11.101562 C 5 11.214844 5.179688 11.585938 5.0625 11.925781 C 4.925781 12.335938 4.796875 12.75 4.683594 13.171875 C 4.570312 13.582031 4.472656 14.007812 4.386719 14.441406 Z M 19.125 19.25 C 19.054688 18.894531 19.28125 18.554688 19.632812 18.480469 C 19.984375 18.410156 20.328125 18.636719 20.398438 18.992188 C 20.503906 19.492188 20.714844 19.96875 21.027344 20.378906 C 21.328125 20.773438 21.71875 21.109375 22.191406 21.355469 C 23.035156 21.785156 23.972656 21.835938 24.808594 21.570312 C 25.644531 21.300781 26.378906 20.714844 26.808594 19.871094 C 26.972656 19.550781 27.367188 19.425781 27.6875 19.589844 C 28.007812 19.753906 28.132812 20.144531 27.96875 20.464844 C 27.371094 21.628906 26.359375 22.4375 25.207031 22.808594 C 24.054688 23.179688 22.761719 23.109375 21.597656 22.511719 C 20.949219 22.179688 20.40625 21.710938 19.992188 21.164062 C 19.5625 20.597656 19.265625 19.941406 19.125 19.25 Z M 16.910156 6.375 C 16.605469 6.183594 16.515625 5.78125 16.707031 5.476562 C 16.898438 5.175781 17.304688 5.082031 17.605469 5.277344 C 19.515625 6.492188 20.820312 8.347656 21.378906 10.410156 C 21.933594 12.453125 21.753906 14.703125 20.710938 16.734375 C 20.546875 17.054688 20.15625 17.183594 19.835938 17.019531 C 19.515625 16.855469 19.386719 16.460938 19.550781 16.140625 C 20.441406 14.410156 20.59375 12.492188 20.121094 10.75 C 19.644531 8.988281 18.535156 7.410156 16.910156 6.375 Z M 8.632812 6.511719 C 8.335938 6.714844 7.929688 6.636719 7.726562 6.339844 C 7.523438 6.042969 7.601562 5.636719 7.898438 5.433594 C 8.929688 4.730469 10.097656 4.253906 11.320312 4.035156 C 12.527344 3.820312 13.785156 3.851562 15.011719 4.160156 C 15.359375 4.246094 15.570312 4.601562 15.484375 4.949219 C 15.398438 5.296875 15.042969 5.507812 14.695312 5.421875 C 13.648438 5.160156 12.578125 5.132812 11.554688 5.316406 C 10.511719 5.503906 9.515625 5.910156 8.632812 6.511719 Z M 6.195312 9.277344 C 6.03125 9.597656 5.636719 9.722656 5.316406 9.558594 C 4.996094 9.394531 4.871094 9.003906 5.035156 8.683594 C 5.125 8.507812 5.222656 8.335938 5.324219 8.160156 C 5.433594 7.984375 5.539062 7.816406 5.648438 7.660156 C 5.855469 7.367188 6.261719 7.292969 6.554688 7.5 C 6.851562 7.707031 6.921875 8.113281 6.71875 8.40625 C 6.617188 8.550781 6.527344 8.691406 6.441406 8.832031 C 6.355469 8.972656 6.273438 9.121094 6.195312 9.277344 Z M 20.65625 0.769531 C 20.957031 0.96875 21.042969 1.371094 20.847656 1.671875 C 20.652344 1.972656 20.25 2.058594 19.945312 1.863281 C 19.898438 1.832031 19.835938 1.792969 19.761719 1.746094 C 19.71875 1.71875 19.65625 1.679688 19.578125 1.632812 C 19.269531 1.445312 19.167969 1.042969 19.355469 0.734375 C 19.542969 0.429688 19.941406 0.328125 20.25 0.515625 C 20.300781 0.546875 20.367188 0.589844 20.457031 0.640625 C 20.511719 0.675781 20.578125 0.71875 20.65625 0.769531 Z M 27.105469 13.472656 C 27.089844 13.828125 26.78125 14.105469 26.421875 14.085938 C 26.0625 14.066406 25.789062 13.761719 25.808594 13.402344 C 25.90625 11.523438 25.589844 9.652344 24.902344 7.917969 C 24.21875 6.203125 23.171875 4.628906 21.800781 3.324219 C 21.539062 3.078125 21.527344 2.664062 21.777344 2.402344 C 22.023438 2.144531 22.4375 2.132812 22.699219 2.378906 C 24.210938 3.816406 25.363281 5.550781 26.117188 7.441406 C 26.871094 9.339844 27.214844 11.398438 27.105469 13.472656 Z M 22.90625 10.707031 C 22.835938 10.355469 23.066406 10.011719 23.417969 9.945312 C 23.769531 9.875 24.113281 10.101562 24.183594 10.453125 C 24.433594 11.710938 24.476562 13.011719 24.296875 14.308594 C 24.121094 15.554688 23.738281 16.796875 23.128906 17.980469 C 23.039062 18.15625 23.03125 18.347656 23.085938 18.519531 C 23.140625 18.695312 23.261719 18.84375 23.4375 18.933594 C 23.609375 19.023438 23.804688 19.035156 23.976562 18.980469 C 24.148438 18.925781 24.300781 18.804688 24.390625 18.628906 C 24.617188 18.191406 24.816406 17.742188 24.988281 17.289062 C 25.160156 16.832031 25.308594 16.367188 25.425781 15.898438 C 25.515625 15.550781 25.871094 15.339844 26.21875 15.425781 C 26.566406 15.515625 26.777344 15.871094 26.6875 16.21875 C 26.558594 16.730469 26.398438 17.242188 26.203125 17.75 C 26.015625 18.246094 25.796875 18.738281 25.550781 19.222656 C 25.296875 19.714844 24.867188 20.058594 24.375 20.21875 C 23.882812 20.375 23.335938 20.347656 22.84375 20.09375 C 22.347656 19.839844 22.003906 19.410156 21.847656 18.917969 C 21.6875 18.429688 21.71875 17.878906 21.972656 17.386719 C 22.511719 16.332031 22.851562 15.234375 23.007812 14.125 C 23.167969 12.976562 23.128906 11.820312 22.90625 10.707031 Z M 21.890625 7.882812 C 21.722656 7.566406 21.84375 7.167969 22.160156 7 C 22.476562 6.832031 22.875 6.953125 23.042969 7.269531 C 23.0625 7.300781 23.105469 7.386719 23.171875 7.519531 C 23.222656 7.621094 23.265625 7.707031 23.292969 7.769531 C 23.449219 8.09375 23.308594 8.484375 22.984375 8.636719 C 22.65625 8.792969 22.269531 8.652344 22.117188 8.328125 C 22.070312 8.230469 22.035156 8.15625 22.007812 8.101562 C 21.996094 8.078125 21.957031 8.003906 21.890625 7.882812 Z M 32.398438 15.300781 C 32.351562 15.65625 32.023438 15.910156 31.667969 15.863281 C 31.3125 15.816406 31.058594 15.488281 31.105469 15.128906 C 31.128906 14.960938 31.144531 14.835938 31.152344 14.757812 C 31.164062 14.671875 31.175781 14.546875 31.191406 14.382812 C 31.222656 14.023438 31.539062 13.757812 31.898438 13.789062 C 32.257812 13.824219 32.519531 14.140625 32.488281 14.5 C 32.480469 14.589844 32.464844 14.722656 32.445312 14.898438 C 32.425781 15.078125 32.410156 15.210938 32.398438 15.300781 Z M 30.53125 21.421875 C 30.375 21.742188 29.984375 21.875 29.660156 21.714844 C 29.339844 21.558594 29.207031 21.167969 29.367188 20.84375 C 29.617188 20.339844 29.839844 19.828125 30.039062 19.3125 C 30.238281 18.792969 30.414062 18.265625 30.566406 17.730469 C 30.664062 17.382812 31.023438 17.179688 31.371094 17.277344 C 31.71875 17.375 31.917969 17.738281 31.820312 18.082031 C 31.660156 18.648438 31.472656 19.214844 31.253906 19.78125 C 31.039062 20.332031 30.800781 20.878906 30.53125 21.421875 Z M 26.375 25.285156 C 26.035156 25.410156 25.660156 25.238281 25.535156 24.898438 C 25.410156 24.5625 25.582031 24.1875 25.917969 24.0625 C 26.296875 23.917969 26.65625 23.746094 26.992188 23.539062 C 27.328125 23.332031 27.644531 23.089844 27.941406 22.816406 C 28.203125 22.574219 28.617188 22.589844 28.859375 22.851562 C 29.105469 23.117188 29.085938 23.53125 28.824219 23.773438 C 28.46875 24.101562 28.082031 24.394531 27.675781 24.644531 C 27.257812 24.902344 26.820312 25.117188 26.375 25.285156 Z M 21.230469 25.3125 C 20.890625 25.191406 20.714844 24.816406 20.835938 24.480469 C 20.960938 24.140625 21.332031 23.964844 21.667969 24.089844 C 21.96875 24.199219 22.273438 24.28125 22.578125 24.339844 C 22.886719 24.402344 23.199219 24.4375 23.511719 24.449219 C 23.871094 24.464844 24.152344 24.765625 24.140625 25.125 C 24.125 25.484375 23.824219 25.765625 23.464844 25.75 C 23.085938 25.734375 22.707031 25.691406 22.328125 25.617188 C 21.957031 25.542969 21.589844 25.441406 21.230469 25.3125 Z M 16.898438 15.398438 C 17.039062 15.070312 17.421875 14.914062 17.75 15.054688 C 18.082031 15.195312 18.238281 15.578125 18.097656 15.90625 C 17.5625 17.167969 17.480469 18.519531 17.789062 19.773438 C 18.101562 21.039062 18.8125 22.199219 19.855469 23.058594 C 20.136719 23.285156 20.175781 23.695312 19.949219 23.972656 C 19.722656 24.253906 19.3125 24.292969 19.035156 24.066406 C 17.765625 23.027344 16.902344 21.617188 16.523438 20.082031 C 16.152344 18.566406 16.25 16.925781 16.898438 15.398438 Z M 13.753906 8 C 13.398438 7.933594 13.167969 7.59375 13.234375 7.242188 C 13.296875 6.886719 13.636719 6.65625 13.992188 6.722656 C 14.277344 6.773438 14.5625 6.847656 14.84375 6.945312 C 15.117188 7.039062 15.390625 7.15625 15.65625 7.292969 C 16.746094 7.851562 17.59375 8.691406 18.160156 9.683594 C 18.742188 10.703125 19.023438 11.878906 18.957031 13.0625 C 18.933594 13.421875 18.628906 13.695312 18.269531 13.675781 C 17.910156 13.65625 17.632812 13.347656 17.65625 12.988281 C 17.707031 12.058594 17.488281 11.128906 17.027344 10.328125 C 16.585938 9.550781 15.917969 8.890625 15.0625 8.449219 C 14.851562 8.34375 14.636719 8.25 14.421875 8.175781 C 14.199219 8.101562 13.976562 8.042969 13.753906 8 " fill-opacity="1" fill-rule="nonzero"/></g><g fill="#0a2540" fill-opacity="1"><g transform="translate(35.56279, 8.870681)"><g><path d="M 0.65625 -5.828125 L 2.953125 -5.828125 C 3.390625 -5.828125 3.789062 -5.753906 4.15625 -5.609375 C 4.53125 -5.460938 4.851562 -5.257812 5.125 -5 C 5.394531 -4.738281 5.601562 -4.429688 5.75 -4.078125 C 5.90625 -3.722656 5.984375 -3.335938 5.984375 -2.921875 C 5.984375 -2.492188 5.90625 -2.101562 5.75 -1.75 C 5.601562 -1.40625 5.394531 -1.097656 5.125 -0.828125 C 4.851562 -0.566406 4.53125 -0.363281 4.15625 -0.21875 C 3.789062 -0.0703125 3.390625 0 2.953125 0 L 0.65625 0 Z M 2.96875 -1.1875 C 3.207031 -1.1875 3.425781 -1.226562 3.625 -1.3125 C 3.832031 -1.40625 4.007812 -1.53125 4.15625 -1.6875 C 4.3125 -1.84375 4.429688 -2.023438 4.515625 -2.234375 C 4.597656 -2.441406 4.640625 -2.671875 4.640625 -2.921875 C 4.640625 -3.171875 4.597656 -3.398438 4.515625 -3.609375 C 4.429688 -3.816406 4.3125 -3.992188 4.15625 -4.140625 C 4.007812 -4.296875 3.832031 -4.414062 3.625 -4.5 C 3.425781 -4.59375 3.207031 -4.640625 2.96875 -4.640625 L 1.921875 -4.640625 L 1.921875 -1.1875 Z M 2.96875 -1.1875 "/></g></g></g><g fill="#0a2540" fill-opacity="1"><g transform="translate(41.868637, 8.870681)"><g><path d="M 0.65625 -5.828125 L 1.921875 -5.828125 L 1.921875 0 L 0.65625 0 Z M 0.65625 -5.828125 "/></g></g></g><g fill="#0a2540" fill-opacity="1"><g transform="translate(44.455434, 8.870681)"><g><path d="M 3.25 0.109375 C 2.832031 0.109375 2.441406 0.0351562 2.078125 -0.109375 C 1.722656 -0.265625 1.410156 -0.476562 1.140625 -0.75 C 0.878906 -1.019531 0.671875 -1.332031 0.515625 -1.6875 C 0.367188 -2.050781 0.296875 -2.445312 0.296875 -2.875 C 0.296875 -3.320312 0.375 -3.734375 0.53125 -4.109375 C 0.6875 -4.484375 0.898438 -4.804688 1.171875 -5.078125 C 1.441406 -5.347656 1.757812 -5.5625 2.125 -5.71875 C 2.5 -5.875 2.898438 -5.953125 3.328125 -5.953125 C 3.785156 -5.953125 4.210938 -5.863281 4.609375 -5.6875 C 5.003906 -5.507812 5.335938 -5.257812 5.609375 -4.9375 L 4.71875 -4.078125 C 4.539062 -4.273438 4.332031 -4.429688 4.09375 -4.546875 C 3.863281 -4.660156 3.617188 -4.71875 3.359375 -4.71875 C 3.109375 -4.71875 2.878906 -4.671875 2.671875 -4.578125 C 2.460938 -4.492188 2.28125 -4.367188 2.125 -4.203125 C 1.96875 -4.035156 1.847656 -3.84375 1.765625 -3.625 C 1.679688 -3.40625 1.640625 -3.164062 1.640625 -2.90625 C 1.640625 -2.644531 1.679688 -2.40625 1.765625 -2.1875 C 1.847656 -1.96875 1.96875 -1.78125 2.125 -1.625 C 2.289062 -1.46875 2.476562 -1.34375 2.6875 -1.25 C 2.90625 -1.164062 3.144531 -1.125 3.40625 -1.125 C 3.625 -1.125 3.828125 -1.148438 4.015625 -1.203125 C 4.203125 -1.265625 4.378906 -1.363281 4.546875 -1.5 L 4.546875 -2.28125 L 3.421875 -2.28125 L 3.421875 -3.328125 L 5.8125 -3.328125 L 5.8125 -0.984375 C 5.507812 -0.640625 5.132812 -0.367188 4.6875 -0.171875 C 4.238281 0.015625 3.757812 0.109375 3.25 0.109375 Z M 3.25 0.109375 "/></g></g></g><g fill="#0a2540" fill-opacity="1"><g transform="translate(50.717734, 8.870681)"><g><path d="M 0.65625 -5.828125 L 1.921875 -5.828125 L 1.921875 0 L 0.65625 0 Z M 0.65625 -5.828125 "/></g></g></g><g fill="#0a2540" fill-opacity="1"><g transform="translate(53.304533, 8.870681)"><g><path d="M 0.65625 -5.828125 L 3.9375 -5.828125 L 3.9375 -4.640625 L 1.921875 -4.640625 L 1.921875 -3.3125 L 3.390625 -3.3125 L 3.390625 -2.125 L 1.921875 -2.125 L 1.921875 0 L 0.65625 0 Z M 0.65625 -5.828125 "/></g></g></g><g fill="#0a2540" fill-opacity="1"><g transform="translate(57.520043, 8.870681)"><g><path d="M 1.734375 -2.09375 L -0.046875 -5.828125 L 1.34375 -5.828125 L 2.40625 -3.46875 L 3.5 -5.828125 L 4.828125 -5.828125 L 3.015625 -2.109375 L 3.015625 0 L 1.734375 0 Z M 1.734375 -2.09375 "/></g></g></g><g fill="#0a2540" fill-opacity="1"><g transform="translate(35.56279, 17.580359)"><g><path d="M 0.65625 -5.828125 L 1.921875 -5.828125 L 1.921875 0 L 0.65625 0 Z M 0.65625 -5.828125 "/></g></g></g><g fill="#0a2540" fill-opacity="1"><g transform="translate(38.149587, 17.580359)"><g><path d="M 1.859375 -3.46875 L 1.859375 0 L 0.65625 0 L 0.65625 -5.9375 L 1.3125 -5.9375 L 4.5625 -2.359375 L 4.5625 -5.828125 L 5.765625 -5.828125 L 5.765625 0.109375 L 5.109375 0.109375 Z M 1.859375 -3.46875 "/></g></g></g><g fill="#0a2540" fill-opacity="1"><g transform="translate(44.586085, 17.580359)"><g><path d="M 1.875 -4.640625 L 0.171875 -4.640625 L 0.171875 -5.828125 L 4.84375 -5.828125 L 4.84375 -4.640625 L 3.140625 -4.640625 L 3.140625 0 L 1.875 0 Z M 1.875 -4.640625 "/></g></g></g><g fill="#0a2540" fill-opacity="1"><g transform="translate(49.611604, 17.580359)"><g><path d="M 0.65625 -5.828125 L 3.984375 -5.828125 L 3.984375 -4.640625 L 1.921875 -4.640625 L 1.921875 -3.5625 L 3.421875 -3.5625 L 3.421875 -2.375 L 1.921875 -2.375 L 1.921875 -1.1875 L 4.03125 -1.1875 L 4.03125 0 L 0.65625 0 Z M 0.65625 -5.828125 "/></g></g></g><g fill="#0a2540" fill-opacity="1"><g transform="translate(54.088405, 17.580359)"><g><path d="M 3.25 0.109375 C 2.832031 0.109375 2.441406 0.0351562 2.078125 -0.109375 C 1.722656 -0.265625 1.410156 -0.476562 1.140625 -0.75 C 0.878906 -1.019531 0.671875 -1.332031 0.515625 -1.6875 C 0.367188 -2.050781 0.296875 -2.445312 0.296875 -2.875 C 0.296875 -3.320312 0.375 -3.734375 0.53125 -4.109375 C 0.6875 -4.484375 0.898438 -4.804688 1.171875 -5.078125 C 1.441406 -5.347656 1.757812 -5.5625 2.125 -5.71875 C 2.5 -5.875 2.898438 -5.953125 3.328125 -5.953125 C 3.785156 -5.953125 4.210938 -5.863281 4.609375 -5.6875 C 5.003906 -5.507812 5.335938 -5.257812 5.609375 -4.9375 L 4.71875 -4.078125 C 4.539062 -4.273438 4.332031 -4.429688 4.09375 -4.546875 C 3.863281 -4.660156 3.617188 -4.71875 3.359375 -4.71875 C 3.109375 -4.71875 2.878906 -4.671875 2.671875 -4.578125 C 2.460938 -4.492188 2.28125 -4.367188 2.125 -4.203125 C 1.96875 -4.035156 1.847656 -3.84375 1.765625 -3.625 C 1.679688 -3.40625 1.640625 -3.164062 1.640625 -2.90625 C 1.640625 -2.644531 1.679688 -2.40625 1.765625 -2.1875 C 1.847656 -1.96875 1.96875 -1.78125 2.125 -1.625 C 2.289062 -1.46875 2.476562 -1.34375 2.6875 -1.25 C 2.90625 -1.164062 3.144531 -1.125 3.40625 -1.125 C 3.625 -1.125 3.828125 -1.148438 4.015625 -1.203125 C 4.203125 -1.265625 4.378906 -1.363281 4.546875 -1.5 L 4.546875 -2.28125 L 3.421875 -2.28125 L 3.421875 -3.328125 L 5.8125 -3.328125 L 5.8125 -0.984375 C 5.507812 -0.640625 5.132812 -0.367188 4.6875 -0.171875 C 4.238281 0.015625 3.757812 0.109375 3.25 0.109375 Z M 3.25 0.109375 "/></g></g></g><g fill="#0a2540" fill-opacity="1"><g transform="translate(60.350706, 17.580359)"><g><path d="M 0.65625 -5.828125 L 2.484375 -5.828125 C 2.785156 -5.828125 3.0625 -5.78125 3.3125 -5.6875 C 3.570312 -5.59375 3.796875 -5.460938 3.984375 -5.296875 C 4.171875 -5.128906 4.316406 -4.929688 4.421875 -4.703125 C 4.523438 -4.472656 4.578125 -4.21875 4.578125 -3.9375 C 4.578125 -3.59375 4.492188 -3.28125 4.328125 -3 C 4.160156 -2.71875 3.925781 -2.5 3.625 -2.34375 L 5 0 L 3.515625 0 L 2.390625 -2.046875 L 1.921875 -2.046875 L 1.921875 0 L 0.65625 0 Z M 2.421875 -3.171875 C 2.691406 -3.171875 2.90625 -3.238281 3.0625 -3.375 C 3.226562 -3.507812 3.3125 -3.695312 3.3125 -3.9375 C 3.3125 -4.175781 3.226562 -4.351562 3.0625 -4.46875 C 2.894531 -4.582031 2.679688 -4.640625 2.421875 -4.640625 L 1.921875 -4.640625 L 1.921875 -3.171875 Z M 2.421875 -3.171875 "/></g></g></g><g fill="#0a2540" fill-opacity="1"><g transform="translate(65.489456, 17.580359)"><g><path d="M 2.390625 -5.9375 L 3.1875 -5.9375 L 5.484375 0 L 4.15625 0 L 3.796875 -0.984375 L 1.78125 -0.984375 L 1.4375 0 L 0.09375 0 Z M 3.40625 -2.078125 L 2.796875 -3.796875 L 2.171875 -2.078125 Z M 3.40625 -2.078125 "/></g></g></g><g fill="#0a2540" fill-opacity="1"><g transform="translate(71.081104, 17.580359)"><g><path d="M 1.875 -4.640625 L 0.171875 -4.640625 L 0.171875 -5.828125 L 4.84375 -5.828125 L 4.84375 -4.640625 L 3.140625 -4.640625 L 3.140625 0 L 1.875 0 Z M 1.875 -4.640625 "/></g></g></g><g fill="#0a2540" fill-opacity="1"><g transform="translate(76.106623, 17.580359)"><g><path d="M 0.65625 -5.828125 L 3.984375 -5.828125 L 3.984375 -4.640625 L 1.921875 -4.640625 L 1.921875 -3.5625 L 3.421875 -3.5625 L 3.421875 -2.375 L 1.921875 -2.375 L 1.921875 -1.1875 L 4.03125 -1.1875 L 4.03125 0 L 0.65625 0 Z M 0.65625 -5.828125 "/></g></g></g><g fill="#0a2540" fill-opacity="1"><g transform="translate(80.583425, 17.580359)"><g><path d="M 0.65625 -5.828125 L 2.953125 -5.828125 C 3.390625 -5.828125 3.789062 -5.753906 4.15625 -5.609375 C 4.53125 -5.460938 4.851562 -5.257812 5.125 -5 C 5.394531 -4.738281 5.601562 -4.429688 5.75 -4.078125 C 5.90625 -3.722656 5.984375 -3.335938 5.984375 -2.921875 C 5.984375 -2.492188 5.90625 -2.101562 5.75 -1.75 C 5.601562 -1.40625 5.394531 -1.097656 5.125 -0.828125 C 4.851562 -0.566406 4.53125 -0.363281 4.15625 -0.21875 C 3.789062 -0.0703125 3.390625 0 2.953125 0 L 0.65625 0 Z M 2.96875 -1.1875 C 3.207031 -1.1875 3.425781 -1.226562 3.625 -1.3125 C 3.832031 -1.40625 4.007812 -1.53125 4.15625 -1.6875 C 4.3125 -1.84375 4.429688 -2.023438 4.515625 -2.234375 C 4.597656 -2.441406 4.640625 -2.671875 4.640625 -2.921875 C 4.640625 -3.171875 4.597656 -3.398438 4.515625 -3.609375 C 4.429688 -3.816406 4.3125 -3.992188 4.15625 -4.140625 C 4.007812 -4.296875 3.832031 -4.414062 3.625 -4.5 C 3.425781 -4.59375 3.207031 -4.640625 2.96875 -4.640625 L 1.921875 -4.640625 L 1.921875 -1.1875 Z M 2.96875 -1.1875 "/></g></g></g><g fill="#0a2540" fill-opacity="1"><g transform="translate(35.56279, 25.56423)"><g><path d="M 2.21875 0.15625 C 1.769531 0.15625 1.363281 0.0546875 1 -0.140625 C 0.644531 -0.347656 0.351562 -0.644531 0.125 -1.03125 L 1.015625 -1.765625 C 1.316406 -1.222656 1.710938 -0.953125 2.203125 -0.953125 C 2.429688 -0.953125 2.613281 -1.003906 2.75 -1.109375 C 2.882812 -1.222656 2.953125 -1.367188 2.953125 -1.546875 C 2.953125 -1.703125 2.882812 -1.835938 2.75 -1.953125 C 2.613281 -2.078125 2.375 -2.21875 2.03125 -2.375 C 1.488281 -2.601562 1.09375 -2.863281 0.84375 -3.15625 C 0.601562 -3.457031 0.484375 -3.8125 0.484375 -4.21875 C 0.484375 -4.46875 0.523438 -4.695312 0.609375 -4.90625 C 0.703125 -5.125 0.832031 -5.3125 1 -5.46875 C 1.175781 -5.625 1.378906 -5.742188 1.609375 -5.828125 C 1.835938 -5.910156 2.09375 -5.953125 2.375 -5.953125 C 3.113281 -5.953125 3.738281 -5.632812 4.25 -5 L 3.40625 -4.234375 C 3.238281 -4.453125 3.070312 -4.609375 2.90625 -4.703125 C 2.75 -4.804688 2.570312 -4.859375 2.375 -4.859375 C 2.1875 -4.859375 2.035156 -4.8125 1.921875 -4.71875 C 1.804688 -4.625 1.75 -4.492188 1.75 -4.328125 C 1.75 -4.148438 1.820312 -4.003906 1.96875 -3.890625 C 2.125 -3.773438 2.351562 -3.648438 2.65625 -3.515625 C 3.207031 -3.273438 3.601562 -3.003906 3.84375 -2.703125 C 4.09375 -2.398438 4.21875 -2.046875 4.21875 -1.640625 C 4.21875 -1.378906 4.164062 -1.132812 4.0625 -0.90625 C 3.96875 -0.6875 3.832031 -0.5 3.65625 -0.34375 C 3.488281 -0.1875 3.28125 -0.0664062 3.03125 0.015625 C 2.78125 0.109375 2.507812 0.15625 2.21875 0.15625 Z M 2.21875 0.15625 "/></g></g></g><g fill="#0a2540" fill-opacity="1"><g transform="translate(40.126694, 25.56423)"><g><path d="M 3.3125 0.125 C 2.882812 0.125 2.488281 0.046875 2.125 -0.109375 C 1.757812 -0.265625 1.441406 -0.476562 1.171875 -0.75 C 0.898438 -1.03125 0.6875 -1.351562 0.53125 -1.71875 C 0.375 -2.082031 0.296875 -2.484375 0.296875 -2.921875 C 0.296875 -3.347656 0.375 -3.742188 0.53125 -4.109375 C 0.6875 -4.484375 0.898438 -4.804688 1.171875 -5.078125 C 1.441406 -5.347656 1.757812 -5.5625 2.125 -5.71875 C 2.488281 -5.875 2.882812 -5.953125 3.3125 -5.953125 C 3.738281 -5.953125 4.132812 -5.875 4.5 -5.71875 C 4.875 -5.5625 5.191406 -5.347656 5.453125 -5.078125 C 5.722656 -4.804688 5.9375 -4.484375 6.09375 -4.109375 C 6.25 -3.742188 6.328125 -3.347656 6.328125 -2.921875 C 6.328125 -2.484375 6.25 -2.082031 6.09375 -1.71875 C 5.9375 -1.351562 5.722656 -1.03125 5.453125 -0.75 C 5.191406 -0.476562 4.875 -0.265625 4.5 -0.109375 C 4.132812 0.046875 3.738281 0.125 3.3125 0.125 Z M 3.3125 -1.109375 C 3.5625 -1.109375 3.785156 -1.15625 3.984375 -1.25 C 4.191406 -1.34375 4.367188 -1.46875 4.515625 -1.625 C 4.660156 -1.789062 4.773438 -1.984375 4.859375 -2.203125 C 4.941406 -2.421875 4.984375 -2.660156 4.984375 -2.921875 C 4.984375 -3.171875 4.941406 -3.40625 4.859375 -3.625 C 4.773438 -3.84375 4.660156 -4.03125 4.515625 -4.1875 C 4.367188 -4.351562 4.191406 -4.484375 3.984375 -4.578125 C 3.785156 -4.671875 3.5625 -4.71875 3.3125 -4.71875 C 3.070312 -4.71875 2.847656 -4.671875 2.640625 -4.578125 C 2.441406 -4.484375 2.265625 -4.351562 2.109375 -4.1875 C 1.960938 -4.03125 1.847656 -3.84375 1.765625 -3.625 C 1.679688 -3.40625 1.640625 -3.171875 1.640625 -2.921875 C 1.640625 -2.660156 1.679688 -2.421875 1.765625 -2.203125 C 1.847656 -1.984375 1.960938 -1.789062 2.109375 -1.625 C 2.265625 -1.46875 2.441406 -1.34375 2.640625 -1.25 C 2.847656 -1.15625 3.070312 -1.109375 3.3125 -1.109375 Z M 3.3125 -1.109375 "/></g></g></g><g fill="#0a2540" fill-opacity="1"><g transform="translate(46.772221, 25.56423)"><g><path d="M 0.65625 -5.828125 L 1.921875 -5.828125 L 1.921875 -1.1875 L 3.9375 -1.1875 L 3.9375 0 L 0.65625 0 Z M 0.65625 -5.828125 "/></g></g></g><g fill="#0a2540" fill-opacity="1"><g transform="translate(50.98773, 25.56423)"><g><path d="M 2.984375 0.125 C 2.640625 0.125 2.320312 0.0625 2.03125 -0.0625 C 1.738281 -0.1875 1.488281 -0.351562 1.28125 -0.5625 C 1.070312 -0.78125 0.90625 -1.039062 0.78125 -1.34375 C 0.664062 -1.65625 0.609375 -1.988281 0.609375 -2.34375 L 0.609375 -5.828125 L 1.875 -5.828125 L 1.875 -2.375 C 1.875 -1.976562 1.972656 -1.664062 2.171875 -1.4375 C 2.378906 -1.21875 2.644531 -1.109375 2.96875 -1.109375 C 3.300781 -1.109375 3.566406 -1.21875 3.765625 -1.4375 C 3.972656 -1.664062 4.078125 -1.976562 4.078125 -2.375 L 4.078125 -5.828125 L 5.359375 -5.828125 L 5.359375 -2.34375 C 5.359375 -1.988281 5.296875 -1.65625 5.171875 -1.34375 C 5.054688 -1.039062 4.894531 -0.78125 4.6875 -0.5625 C 4.476562 -0.351562 4.226562 -0.1875 3.9375 -0.0625 C 3.644531 0.0625 3.328125 0.125 2.984375 0.125 Z M 2.984375 0.125 "/></g></g></g><g fill="#0a2540" fill-opacity="1"><g transform="translate(56.962614, 25.56423)"><g><path d="M 1.875 -4.640625 L 0.171875 -4.640625 L 0.171875 -5.828125 L 4.84375 -5.828125 L 4.84375 -4.640625 L 3.140625 -4.640625 L 3.140625 0 L 1.875 0 Z M 1.875 -4.640625 "/></g></g></g><g fill="#0a2540" fill-opacity="1"><g transform="translate(61.988134, 25.56423)"><g><path d="M 0.65625 -5.828125 L 1.921875 -5.828125 L 1.921875 0 L 0.65625 0 Z M 0.65625 -5.828125 "/></g></g></g><g fill="#0a2540" fill-opacity="1"><g transform="translate(64.574932, 25.56423)"><g><path d="M 3.3125 0.125 C 2.882812 0.125 2.488281 0.046875 2.125 -0.109375 C 1.757812 -0.265625 1.441406 -0.476562 1.171875 -0.75 C 0.898438 -1.03125 0.6875 -1.351562 0.53125 -1.71875 C 0.375 -2.082031 0.296875 -2.484375 0.296875 -2.921875 C 0.296875 -3.347656 0.375 -3.742188 0.53125 -4.109375 C 0.6875 -4.484375 0.898438 -4.804688 1.171875 -5.078125 C 1.441406 -5.347656 1.757812 -5.5625 2.125 -5.71875 C 2.488281 -5.875 2.882812 -5.953125 3.3125 -5.953125 C 3.738281 -5.953125 4.132812 -5.875 4.5 -5.71875 C 4.875 -5.5625 5.191406 -5.347656 5.453125 -5.078125 C 5.722656 -4.804688 5.9375 -4.484375 6.09375 -4.109375 C 6.25 -3.742188 6.328125 -3.347656 6.328125 -2.921875 C 6.328125 -2.484375 6.25 -2.082031 6.09375 -1.71875 C 5.9375 -1.351562 5.722656 -1.03125 5.453125 -0.75 C 5.191406 -0.476562 4.875 -0.265625 4.5 -0.109375 C 4.132812 0.046875 3.738281 0.125 3.3125 0.125 Z M 3.3125 -1.109375 C 3.5625 -1.109375 3.785156 -1.15625 3.984375 -1.25 C 4.191406 -1.34375 4.367188 -1.46875 4.515625 -1.625 C 4.660156 -1.789062 4.773438 -1.984375 4.859375 -2.203125 C 4.941406 -2.421875 4.984375 -2.660156 4.984375 -2.921875 C 4.984375 -3.171875 4.941406 -3.40625 4.859375 -3.625 C 4.773438 -3.84375 4.660156 -4.03125 4.515625 -4.1875 C 4.367188 -4.351562 4.191406 -4.484375 3.984375 -4.578125 C 3.785156 -4.671875 3.5625 -4.71875 3.3125 -4.71875 C 3.070312 -4.71875 2.847656 -4.671875 2.640625 -4.578125 C 2.441406 -4.484375 2.265625 -4.351562 2.109375 -4.1875 C 1.960938 -4.03125 1.847656 -3.84375 1.765625 -3.625 C 1.679688 -3.40625 1.640625 -3.171875 1.640625 -2.921875 C 1.640625 -2.660156 1.679688 -2.421875 1.765625 -2.203125 C 1.847656 -1.984375 1.960938 -1.789062 2.109375 -1.625 C 2.265625 -1.46875 2.441406 -1.34375 2.640625 -1.25 C 2.847656 -1.15625 3.070312 -1.109375 3.3125 -1.109375 Z M 3.3125 -1.109375 "/></g></g></g><g fill="#0a2540" fill-opacity="1"><g transform="translate(71.220459, 25.56423)"><g><path d="M 1.859375 -3.46875 L 1.859375 0 L 0.65625 0 L 0.65625 -5.9375 L 1.3125 -5.9375 L 4.5625 -2.359375 L 4.5625 -5.828125 L 5.765625 -5.828125 L 5.765625 0.109375 L 5.109375 0.109375 Z M 1.859375 -3.46875 "/></g></g></g><g fill="#0a2540" fill-opacity="1"><g transform="translate(77.656958, 25.56423)"><g><path d="M 2.21875 0.15625 C 1.769531 0.15625 1.363281 0.0546875 1 -0.140625 C 0.644531 -0.347656 0.351562 -0.644531 0.125 -1.03125 L 1.015625 -1.765625 C 1.316406 -1.222656 1.710938 -0.953125 2.203125 -0.953125 C 2.429688 -0.953125 2.613281 -1.003906 2.75 -1.109375 C 2.882812 -1.222656 2.953125 -1.367188 2.953125 -1.546875 C 2.953125 -1.703125 2.882812 -1.835938 2.75 -1.953125 C 2.613281 -2.078125 2.375 -2.21875 2.03125 -2.375 C 1.488281 -2.601562 1.09375 -2.863281 0.84375 -3.15625 C 0.601562 -3.457031 0.484375 -3.8125 0.484375 -4.21875 C 0.484375 -4.46875 0.523438 -4.695312 0.609375 -4.90625 C 0.703125 -5.125 0.832031 -5.3125 1 -5.46875 C 1.175781 -5.625 1.378906 -5.742188 1.609375 -5.828125 C 1.835938 -5.910156 2.09375 -5.953125 2.375 -5.953125 C 3.113281 -5.953125 3.738281 -5.632812 4.25 -5 L 3.40625 -4.234375 C 3.238281 -4.453125 3.070312 -4.609375 2.90625 -4.703125 C 2.75 -4.804688 2.570312 -4.859375 2.375 -4.859375 C 2.1875 -4.859375 2.035156 -4.8125 1.921875 -4.71875 C 1.804688 -4.625 1.75 -4.492188 1.75 -4.328125 C 1.75 -4.148438 1.820312 -4.003906 1.96875 -3.890625 C 2.125 -3.773438 2.351562 -3.648438 2.65625 -3.515625 C 3.207031 -3.273438 3.601562 -3.003906 3.84375 -2.703125 C 4.09375 -2.398438 4.21875 -2.046875 4.21875 -1.640625 C 4.21875 -1.378906 4.164062 -1.132812 4.0625 -0.90625 C 3.96875 -0.6875 3.832031 -0.5 3.65625 -0.34375 C 3.488281 -0.1875 3.28125 -0.0664062 3.03125 0.015625 C 2.78125 0.109375 2.507812 0.15625 2.21875 0.15625 Z M 2.21875 0.15625 "/></g></g></g></svg>